. 
 
http://www.torrenting.com          :     Once & For all ;)


               www . Torrenting . Com 

(((((((((((((= Enjoy No RAR releases =))))))))))))))))))))


...................................NFO:....................................

.[IMG]http://lookpic.com/O/i2/1089/NqpRRCJA.jpeg[/IMG]

[IMG]http://lookpic.com/O/i2/1621/JvbsFDw7.png[/IMG]

A car accident puts Paige (McAdams) in a coma, and when she wakes up with severe memory loss, her husband Leo (Tatum) works to win her heart again
 
http://www.imdb.com/title/tt1606389/

Source: Ours
Audio: INSPIRAL...THX

Format                           : AVI
Format/Info                      : Audio Video Interleave
File size                        : 1.09 GiB
Duration                         : 1h 39mn
Overall bit rate                 : 1 566 Kbps
Writing application              : Lavf51.12.1
Writing library                  : VirtualDub build 33848/release

Video
ID                               : 0
Format                           : MPEG-4 Visual
Format profile                   : Advanced Simple@L5
Format settings, BVOP            : Yes
Format settings, QPel            : No
Format settings, GMC             : No warppoints
Format settings, Matrix          : Default (H.263)
Muxing mode                      : Packed bitstream
Codec ID                         : XVID
Codec ID/Hint                    : XviD
Duration                         : 1h 39mn
Bit rate                         : 1 362 Kbps
Width                            : 720 pixels
Height                           : 312 pixels
Display aspect ratio             : 2.35:1
Frame rate                       : 29.970 fps
Color space                      : YUV
Chroma subsampling               : 4:2:0
Bit depth                        : 8 bits
Scan type                        : Progressive
Bits/(Pixel*Frame)               : 0.202
Stream size                      : 970 MiB (87%)
Writing library                  : XviD 1.2.1 (UTC 2008-12-04)

Audio
ID                               : 1
Format                           : MPEG Audio
Format version                   : Version 1
Format profile                   : Layer 3
Mode                             : Joint stereo
Mode extension                   : MS Stereo
Codec ID                         : 55
Codec ID/Hint                    : MP3
Duration                         : 1h 39mn
Bit rate mode                    : Constant
Bit rate                         : 192 Kbps
Channel(s)                       : 2 channels
Sampling rate                    : 44.1 KHz
Stream size                      : 137 MiB (12%)
Alignment                        : Split accross interleaves
Interleave, duration             : 33 ms (1.00 video frame)
Interleave, preload duration     : 500 ms

Workdone:
Everything the same, just fixed the sync.

Audio: Untouched 

Enjoy!

[IMG]http://lookpic.com/O/i2/971/t7WUAD16.png[/IMG]

[IMG]http://lookpic.com/O/i2/968/wzaqJOcB.jpeg[/IMG]
[IMG]http://lookpic.com/O/i2/607/a8dT6fy7.jpeg[/IMG]
[IMG]http://lookpic.com/O/i2/26/qW9IOAf.jpeg[/IMG]
[IMG]http://lookpic.com/O/i2/491/vA74Wa3r.jpeg[/IMG]
[IMG]http://lookpic.com/O/i2/1772/DUEEfgcI.jpeg[/IMG]
[IMG]http://lookpic.com/O/i2/213/jBlYshsU.jpeg[/IMG]